#N canvas 775 272 1109 874 10;
#X obj 41 106 OSCSelect;
#X obj 98 620 dac~;
#X obj 94 543 *~;
#X obj 137 469 hsl 128 15 0 1 0 0 empty empty empty -2 -8 0 10 -262144
-1 -1 11400 1;
#X obj 134 425 ctlin 1;
#X obj 134 447 / 127;
#X obj 101 106 OSC2Select;
#X obj 134 491 CrossFade;
#X obj 63 541 *~;
#X obj 240 97 bng 15 250 50 0 empty empty empty 17 7 0 10 -262144 -1
-1;
#X obj 240 117 s Dorian_Mode;
#X obj 341 95 bng 15 250 50 0 empty empty empty 17 7 0 10 -262144 -1
-1;
#X obj 341 115 s Ionian_Mode;
#X floatatom 140 575 5 0 0 0 - - -, f 5;
#X obj 71 576 *~;
#X obj 433 160 osc~;
#X obj 491 125 hsl 128 15 0 127 0 0 empty empty empty -2 -8 0 10 -262144
-1 -1 6200 1;
#X obj 340 434 dac~;
#X obj 436 299 snapshot~;
#X floatatom 436 321 5 0 0 0 - - -, f 5;
#X obj 685 318 tgl 15 0 empty empty empty 17 7 0 10 -262144 -1 -1 0
1;
#X obj 433 182 *~ 1000;
#X obj 433 204 clip~ -1 1;
#X obj 436 340 * 20;
#X obj 533 277 hsl 128 15 0 1000 0 0 empty empty empty -2 -8 0 10 -262144
-1 -1 5500 1;
#X obj 338 391 osc~;
#X obj 532 377 snapshot~;
#X floatatom 532 399 5 0 0 0 - - -, f 5;
#X obj 690 346 metro 10;
#X obj 532 356 osc~;
#X obj 532 418 * 100;
#X obj 563 523 hsl 128 15 0 1000 0 0 empty empty empty -2 -8 0 10 -262144
-1 -1 3820 1;
#X obj 532 440 + 400;
#X floatatom 532 462 5 0 0 0 - - -, f 5;
#X connect 0 0 8 0;
#X connect 2 0 14 0;
#X connect 3 0 7 0;
#X connect 3 0 2 1;
#X connect 4 0 5 0;
#X connect 5 0 3 0;
#X connect 6 0 2 0;
#X connect 7 0 8 1;
#X connect 8 0 14 0;
#X connect 9 0 10 0;
#X connect 11 0 12 0;
#X connect 13 0 14 1;
#X connect 14 0 1 0;
#X connect 14 0 1 1;
#X connect 15 0 21 0;
#X connect 16 0 15 0;
#X connect 18 0 19 0;
#X connect 19 0 23 0;
#X connect 20 0 28 0;
#X connect 21 0 22 0;
#X connect 22 0 18 0;
#X connect 24 0 29 0;
#X connect 25 0 17 0;
#X connect 25 0 17 1;
#X connect 26 0 27 0;
#X connect 27 0 30 0;
#X connect 28 0 26 0;
#X connect 29 0 26 0;
#X connect 30 0 32 0;
#X connect 32 0 33 0;
#X connect 33 0 31 0;
