#N canvas 657 160 1109 874 10;
#X obj 221 106 OSCSelect;
#X obj 288 543 *~;
#X obj 317 469 hsl 128 15 0 1 0 0 empty empty empty -2 -8 0 10 -262144
-1 -1 8500 1;
#X obj 314 425 ctlin 1;
#X obj 314 447 / 127;
#X obj 281 106 OSC2Select;
#X obj 314 491 CrossFade;
#X obj 257 541 *~;
#X obj 391 265 bng 15 250 50 0 empty empty empty 17 7 0 10 -262144
-1 -1;
#X obj 391 285 s Dorian_Mode;
#X obj 492 263 bng 15 250 50 0 empty empty empty 17 7 0 10 -262144
-1 -1;
#X obj 492 283 s Ionian_Mode;
#X obj 769 332 tgl 15 0 empty empty empty 17 7 0 10 -262144 -1 -1 1
1;
#X obj 713 277 hsl 128 15 1 20 0 0 empty empty empty -2 -8 0 10 -262144
-1 -1 605 1;
#X obj 712 377 snapshot~;
#X floatatom 712 399 5 0 0 0 - - -, f 5;
#X obj 774 360 metro 10;
#X obj 712 356 osc~;
#X floatatom 712 440 5 0 0 0 - - -, f 5;
#X obj 713 521 s vibrato;
#X obj 712 418 * \$1;
#X obj 878 277 hsl 128 15 0 25 0 0 empty empty empty -2 -8 0 10 -262144
-1 -1 0 1;
#X obj 710 213 ctlin 3;
#X obj 710 235 / 6.3;
#X obj 876 218 ctlin 4;
#X obj 876 240 / 5.08;
#X obj 270 711 dac~;
#X obj 274 611 vcf~;
#X floatatom 339 577 5 0 0 0 - - -, f 5;
#X floatatom 404 662 5 0 0 0 - - -, f 5;
#X obj 339 598 sig~;
#X obj 457 515 vsl 40 60 500 5000 0 0 empty empty empty 0 -9 0 10 -262144
-1 -1 841 1;
#X obj 457 477 * 39.37;
#X obj 404 611 / 16;
#X obj 457 450 ctlin 5;
#X obj 404 589 ctlin 6;
#X obj 404 633 + 0.01;
#X obj 512 716 delread~ delay_a 500;
#X obj 512 687 delread~ delay_b 1000;
#X obj 236 805 delwrite~ delay_b 4000;
#X obj 240 773 delwrite~ delay_a 4000;
#X floatatom 512 656 5 0 0 0 - - -, f 5;
#X obj 512 613 ctlin 7;
#X floatatom 582 656 5 0 0 0 - - -, f 5;
#X obj 512 635 * 31.496;
#X obj 582 635 * 31.496;
#X obj 582 613 ctlin 8;
#X obj 364 684 /~ 4;
#X obj 380 709 /~ 4;
#X obj 271 662 /~ 4;
#X obj 391 92 notein;
#X obj 391 114 stripnote;
#X obj 392 163 f;
#X obj 429 162 + 1;
#X obj 392 185 % 2;
#X floatatom 472 204 5 0 0 0 - - -, f 5;
#X obj 391 212 sel 0 1;
#X obj 392 163 f;
#X obj 429 162 + 1;
#X obj 392 163 f;
#X obj 429 162 + 1;
#X obj 392 163 f;
#X obj 429 162 + 1;
#X obj 602 153 f;
#X obj 639 152 + 1;
#X obj 602 153 f;
#X obj 639 152 + 1;
#X msg 607 256 \; pd dsp 1;
#X obj 602 186 sel 0;
#X obj 604 385 * 0;
#X obj 79 47 metro 100;
#X obj 79 98 bng 15 250 50 0 empty empty empty 17 7 0 10 -262144 -1
-1;
#X obj 37 30 f 1;
#X obj 702 43 loadbang;
#X msg 863 502 \; pd MIDI;
#X msg 67 459 foo 4;
#X msg 837 704 \; pd midi-dialog;
#X obj 504 97 2;
#X obj 76 336 bng 15 250 50 0 empty empty empty 17 7 0 10 -262144 -1
-1;
#X obj 69 198 notein;
#X obj 75 248 stripnote;
#X floatatom 75 270 5 0 0 0 - - -, f 5;
#X obj 75 289 sel 62;
#X obj 391 136 sel 50;
#X connect 0 0 7 0;
#X connect 1 0 27 0;
#X connect 2 0 6 0;
#X connect 2 0 1 1;
#X connect 3 0 4 0;
#X connect 4 0 2 0;
#X connect 5 0 1 0;
#X connect 6 0 7 1;
#X connect 7 0 27 0;
#X connect 8 0 9 0;
#X connect 10 0 11 0;
#X connect 12 0 16 0;
#X connect 13 0 17 0;
#X connect 14 0 15 0;
#X connect 15 0 20 0;
#X connect 16 0 14 0;
#X connect 17 0 14 0;
#X connect 18 0 19 0;
#X connect 20 0 18 0;
#X connect 21 0 20 1;
#X connect 22 0 23 0;
#X connect 23 0 13 0;
#X connect 24 0 25 0;
#X connect 25 0 21 0;
#X connect 27 0 40 0;
#X connect 27 0 39 0;
#X connect 27 0 49 0;
#X connect 28 0 30 0;
#X connect 29 0 27 2;
#X connect 30 0 27 1;
#X connect 31 0 28 0;
#X connect 32 0 31 0;
#X connect 33 0 36 0;
#X connect 34 0 32 0;
#X connect 35 0 33 0;
#X connect 36 0 29 0;
#X connect 37 0 48 0;
#X connect 38 0 47 0;
#X connect 41 0 38 0;
#X connect 42 0 44 0;
#X connect 43 0 37 0;
#X connect 44 0 41 0;
#X connect 45 0 43 0;
#X connect 46 0 45 0;
#X connect 47 0 26 1;
#X connect 48 0 26 0;
#X connect 49 0 26 0;
#X connect 49 0 26 1;
#X connect 50 0 51 0;
#X connect 50 1 51 1;
#X connect 51 0 83 0;
#X connect 52 0 53 0;
#X connect 52 0 54 0;
#X connect 53 0 52 1;
#X connect 54 0 55 0;
#X connect 54 0 56 0;
#X connect 56 0 8 0;
#X connect 56 1 10 0;
#X connect 57 0 58 0;
#X connect 58 0 57 1;
#X connect 59 0 60 0;
#X connect 60 0 59 1;
#X connect 61 0 62 0;
#X connect 62 0 61 1;
#X connect 63 0 64 0;
#X connect 63 0 68 0;
#X connect 64 0 63 1;
#X connect 65 0 66 0;
#X connect 66 0 65 1;
#X connect 69 0 41 0;
#X connect 69 0 43 0;
#X connect 70 0 71 0;
#X connect 72 0 70 0;
#X connect 73 0 69 0;
#X connect 73 0 67 0;
#X connect 73 0 12 0;
#X connect 73 0 77 0;
#X connect 77 0 83 0;
#X connect 79 0 80 0;
#X connect 79 1 80 1;
#X connect 80 0 81 0;
#X connect 81 0 82 0;
#X connect 82 0 78 0;
#X connect 83 0 52 0;
#X connect 83 0 63 0;
